<svg width="50" height="56" viewBox="0 0 50 56" fill="none" xmlns="http://www.w3.org/2000/svg">
<g filter="url(#filter0_d_20_31)">
<path d="M7.99959 16.477C7.99959 28.9072 24.8567 40 24.8567 40C24.8567 40 41.7139 28.2474 41.7139 16.477C41.7139 7.37701 34.1667 -6.59797e-07 24.8567 -1.4737e-06C15.5468 -2.2876e-06 7.99959 7.37701 7.99959 16.477Z" fill="#EA111E"/>
</g>
<ellipse cx="24.9999" cy="16.2857" rx="12.4286" ry="12.5714" fill="white"/>
<path fill-rule="evenodd" clip-rule="evenodd" d="M24.9586 11.6673C22.2211 11.6673 20.0019 13.8865 20.0019 16.624C20.0019 19.3615 22.2211 21.5807 24.9586 21.5807C26.1085 21.5807 27.167 21.1891 28.0079 20.532V24.4408C27.0628 24.8098 26.0343 25.0123 24.9586 25.0123C20.3259 25.0123 16.5703 21.2567 16.5703 16.624C16.5703 11.9913 20.3259 8.23572 24.9586 8.23572C29.5913 8.23572 33.3469 11.9913 33.3469 16.624C33.3469 16.6379 33.3468 16.6518 33.3468 16.6657C33.3467 16.6824 33.3465 16.699 33.3464 16.7156V28.8678H29.9148V23.3922C29.9147 23.3923 29.9145 23.3924 29.9143 23.3925V16.7223C29.9145 16.713 29.9147 16.7037 29.9148 16.6944V16.624H29.9153C29.9153 13.8865 27.6961 11.6673 24.9586 11.6673Z" fill="#EA101E"/>
<defs>
<filter id="filter0_d_20_31" x="0" y="0" width="49.7139" height="56" filterUnits="userSpaceOnUse" color-interpolation-filters="sRGB">
<feFlood flood-opacity="0" result="BackgroundImageFix"/>
<feColorMatrix in="SourceAlpha" type="matrix" values="0 0 0 0 0 0 0 0 0 0 0 0 0 0 0 0 0 0 127 0" result="hardAlpha"/>
<feOffset dy="8"/>
<feGaussianBlur stdDeviation="4"/>
<feComposite in2="hardAlpha" operator="out"/>
<feColorMatrix type="matrix" values="0 0 0 0 0.917647 0 0 0 0 0.0666667 0 0 0 0 0.117647 0 0 0 0.45 0"/>
<feBlend mode="normal" in2="BackgroundImageFix" result="effect1_dropShadow_20_31"/>
<feBlend mode="normal" in="SourceGraphic" in2="effect1_dropShadow_20_31" result="shape"/>
</filter>
</defs>
</svg>
